<svg width="96" height="96" viewBox="0 0 96 96" fill="none" xmlns="http://www.w3.org/2000/svg">
<path d="M19.2 15.36H30.72C32.8408 15.36 34.56 17.0792 34.56 19.2V30.72C34.56 32.8408 32.8408 34.56 30.72 34.56H19.2C17.0792 34.56 15.36 32.8408 15.36 30.72V19.2C15.36 17.0792 17.0792 15.36 19.2 15.36Z" fill="#10B981"/>
<path d="M19.2 40.32H30.72C32.8408 40.32 34.56 42.0392 34.56 44.16V76.8C34.56 78.9208 32.8408 80.64 30.72 80.64H19.2C17.0792 80.64 15.36 78.9208 15.36 76.8V44.16C15.36 42.0392 17.0792 40.32 19.2 40.32Z" fill="white"/>
<path d="M40.32 15.36H63.36C73.4337 15.36 81.6 23.5263 81.6 33.6C81.6 43.6737 73.4337 51.84 63.36 51.84H40.32V15.36Z" fill="#475569"/>
<path d="M40.32 57.6H65.28C73.7631 57.6 80.64 64.4769 80.64 72.96C80.64 81.4431 73.7631 88.32 65.28 88.32H40.32V57.6Z" fill="white"/>
</svg>
