<svg width="48" height="48" viewBox="0 0 48 48" fill="none" xmlns="http://www.w3.org/2000/svg">
<path d="M9.59999 7.67999H15.36C16.4204 7.67999 17.28 8.53961 17.28 9.59999V15.36C17.28 16.4204 16.4204 17.28 15.36 17.28H9.59999C8.53961 17.28 7.67999 16.4204 7.67999 15.36V9.59999C7.67999 8.53961 8.53961 7.67999 9.59999 7.67999Z" fill="#10B981"/>
<path d="M9.59999 20.16H15.36C16.4204 20.16 17.28 21.0196 17.28 22.08V38.4C17.28 39.4604 16.4204 40.32 15.36 40.32H9.59999C8.53961 40.32 7.67999 39.4604 7.67999 38.4V22.08C7.67999 21.0196 8.53961 20.16 9.59999 20.16Z" fill="#0F172A"/>
<path d="M20.16 7.67999H31.68C36.7168 7.67999 40.8 11.7632 40.8 16.8C40.8 21.8368 36.7168 25.92 31.68 25.92H20.16V7.67999Z" fill="#475569"/>
<path d="M20.16 28.8H32.64C36.8816 28.8 40.32 32.2384 40.32 36.48C40.32 40.7216 36.8816 44.16 32.64 44.16H20.16V28.8Z" fill="#0F172A"/>
</svg>
